<svg enable-background="new 0 0 100 100" fill="rgb(248, 48, 45)" height="300px" version="1.1" viewBox="0 0 100 100" width="300px" x="0px" xml:space="preserve" xmlns="http://www.w3.org/2000/svg" xmlns:xlink="http://www.w3.org/1999/xlink" y="0px">
	<g>
		<path d="M33.182,34.772c-1.381,0-2.5,1.119-2.5,2.5v7.273c0,1.381,1.119,2.5,2.5,2.5c1.381,0,2.5-1.119,2.5-2.5v-7.273   C35.682,35.892,34.563,34.772,33.182,34.772z"/>
		<path d="M66.818,47.045c1.381,0,2.5-1.119,2.5-2.5v-7.273c0-1.381-1.119-2.5-2.5-2.5s-2.5,1.119-2.5,2.5v7.273   C64.318,45.926,65.438,47.045,66.818,47.045z"/>
		<path d="M66.77,71.716c-4.479-4.478-10.434-6.944-16.768-6.944c-6.335,0-12.289,2.465-16.768,6.944   c-0.977,0.976-0.977,2.56,0,3.535c0.975,0.978,2.559,0.978,3.535,0c3.534-3.534,8.233-5.479,13.232-5.479   c4.998,0,9.698,1.945,13.231,5.479c0.977,0.978,2.559,0.978,3.535,0C67.744,74.275,67.744,72.693,66.77,71.716z"/>
		<path d="M47.197,60.15c4.532,0,7.575-3.045,7.575-7.575V37.272c0-1.381-1.119-2.5-2.5-2.5s-2.5,1.119-2.5,2.5v15.303   c0,2.282-1.376,2.575-2.575,2.575c-1.381,0-2.5,1.119-2.5,2.5S45.816,60.15,47.197,60.15z"/>
		<path d="M7.5,39.772c1.381,0,2.5-1.119,2.5-2.5V24.5C10,16.504,16.504,10,24.5,10h8.228c1.381,0,2.5-1.119,2.5-2.5   S34.108,5,32.727,5H24.5C13.748,5,5,13.748,5,24.5v12.773C5,38.653,6.119,39.772,7.5,39.772z"/>
		<path d="M32.727,89.999H24.5c-7.995,0-14.5-6.504-14.5-14.499V62.729c0-1.381-1.119-2.5-2.5-2.5S5,61.348,5,62.729V75.5   c0,10.752,8.748,19.499,19.5,19.499h8.228c1.381,0,2.5-1.119,2.5-2.5S34.108,89.999,32.727,89.999z"/>
		<path d="M75.5,5h-8.229c-1.381,0-2.5,1.119-2.5,2.5s1.119,2.5,2.5,2.5H75.5C83.495,10,90,16.504,90,24.5v12.773   c0,1.381,1.119,2.5,2.5,2.5s2.5-1.119,2.5-2.5V24.5C95,13.748,86.252,5,75.5,5z"/>
		<path d="M92.5,60.229c-1.381,0-2.5,1.119-2.5,2.5V75.5c0,7.995-6.505,14.499-14.5,14.499h-8.229c-1.381,0-2.5,1.119-2.5,2.5   s1.119,2.5,2.5,2.5H75.5c10.752,0,19.5-8.747,19.5-19.499V62.729C95,61.348,93.881,60.229,92.5,60.229z"/>
	</g>
</svg>