<?xml version="1.0" standalone="no"?><!DOCTYPE svg PUBLIC "-//W3C//DTD SVG 1.1//EN" "http://www.w3.org/Graphics/SVG/1.1/DTD/svg11.dtd"><svg class="icon" height="512" viewBox="0 0 1536 1024" version="1.1" xmlns="http://www.w3.org/2000/svg" fill="#10425f"><path d="M682.656 256l85.344 0 0 85.344-85.344 0 0 85.344-341.344 0 0 85.344-85.344 0 0-512 426.656 0 0 256zM1280 426.656l-170.656 0 0 85.344 170.656 0 0 170.656-256 0 0-256-170.656 0 0-256-85.344 0 0-170.656 512 0 0 426.656zM341.344 85.344l0 256 256 0 0-256-256 0zM938.656 85.344l0 256 256 0 0-256-256 0zM512 256l-85.344 0 0-85.344 85.344 0 0 85.344zM1109.344 256l-85.344 0 0-85.344 85.344 0 0 85.344zM512 597.344l170.656 0 0 426.656-426.656 0 0-426.656 170.656 0 0-85.344 85.344 0 0 85.344zM938.656 768l170.656 0 0 85.344-85.344 0 0 85.344-170.656 0 0-85.344-85.344 0 0-85.344 85.344 0 0-170.656-170.656 0 0-85.344 256 0 0 256zM341.344 682.656l0 256 256 0 0-256-256 0zM512 853.344l-85.344 0 0-85.344 85.344 0 0 85.344zM1280 853.344l-85.344 0 0-85.344 85.344 0 0 85.344zM853.344 1024l-85.344 0 0-85.344 85.344 0 0 85.344zM1280 1024l-256 0 0-85.344 256 0 0 85.344z" /></svg>